<svg width="34" height="46" viewBox="0 0 34 46" fill="none" xmlns="http://www.w3.org/2000/svg">
<path d="M18.1483 26.8763V21.2272C18.1483 20.9138 18.0257 20.6132 17.8074 20.3916C17.5892 20.1699 17.2931 20.0454 16.9845 20.0454C16.6758 20.0454 16.3798 20.1699 16.1615 20.3916C15.9433 20.6132 15.8206 20.9138 15.8206 21.2272V26.8763C15.4688 27.0826 15.1763 27.3787 14.9721 27.7353C14.768 28.0919 14.6593 28.4965 14.6568 28.909C14.6568 29.5359 14.902 30.1371 15.3386 30.5804C15.7751 31.0236 16.3671 31.2727 16.9845 31.2727C17.6018 31.2727 18.1939 31.0236 18.6304 30.5804C19.0669 30.1371 19.3121 29.5359 19.3121 28.909C19.3097 28.4965 19.201 28.0919 18.9968 27.7353C18.7926 27.3787 18.5001 27.0826 18.1483 26.8763ZM22.2217 24.1818V15.3182C22.2217 13.9077 21.67 12.555 20.6878 11.5577C19.7056 10.5603 18.3735 10 16.9845 10C15.5955 10 14.2633 10.5603 13.2812 11.5577C12.299 12.555 11.7472 13.9077 11.7472 15.3182V24.1818C10.9428 25.1074 10.3903 26.2302 10.1444 27.4391C9.89845 28.6481 9.96759 29.9013 10.345 31.0748C10.7223 32.2483 11.3949 33.3014 12.296 34.13C13.1972 34.9585 14.2958 35.5339 15.4831 35.799C15.9763 35.9132 16.479 35.9804 16.9845 35.9999C18.3353 36.0063 19.6589 35.6147 20.7949 34.8726C21.9309 34.1305 22.8306 33.0698 23.3849 31.819C23.9393 30.5681 24.1244 29.1809 23.9179 27.8253C23.7115 26.4698 23.1223 25.2041 22.2217 24.1818ZM19.8941 32.5372C18.9681 33.3709 17.7538 33.797 16.5185 33.7216C15.2831 33.6463 14.1278 33.0757 13.3068 32.1354C12.4857 31.1951 12.0661 29.9621 12.1403 28.7076C12.2145 27.4532 12.7764 26.2801 13.7025 25.4463C13.8124 25.3369 13.8999 25.2063 13.9598 25.0623C14.0198 24.9183 14.051 24.7636 14.0516 24.6072V15.3182C14.0516 14.5346 14.3582 13.7831 14.9038 13.229C15.4495 12.6749 16.1895 12.3636 16.9612 12.3636C17.7329 12.3636 18.4729 12.6749 19.0186 13.229C19.5642 13.7831 19.8708 14.5346 19.8708 15.3182V24.7018C19.8714 24.8581 19.9026 25.0128 19.9626 25.1569C20.0225 25.3009 20.11 25.4314 20.2199 25.5409C20.6957 26.0075 21.068 26.5718 21.3121 27.196C21.5562 27.8203 21.6666 28.4902 21.6357 29.1611C21.6049 29.8321 21.4336 30.4886 21.1333 31.0871C20.833 31.6855 20.4105 32.2121 19.8941 32.6318V32.5372Z" fill="#6D97CA"/>
</svg>
