<svg width="34" height="34" viewBox="0 0 34 34" fill="none" xmlns="http://www.w3.org/2000/svg">
<path fill-rule="evenodd" clip-rule="evenodd" d="M20.0001 13.9944L20.0001 13.9885L14.3394 13.9884L19.7693 12.0263L19.7688 12.0247C19.8727 11.9985 19.9804 11.9892 20.0875 11.9972C20.1016 11.9982 20.1157 11.9996 20.1298 12.0012L20.13 12.0012C20.2771 12.0186 20.4184 12.0683 20.5439 12.147L20.5439 12.147C20.6694 12.2256 20.7759 12.3312 20.8556 12.456L20.8557 12.4562C20.9354 12.581 20.9864 12.722 21.0049 12.8689L21.005 12.8692C21.0235 13.0162 21.0092 13.1655 20.963 13.3062L20.963 13.3063C20.9168 13.4471 20.8398 13.5759 20.7378 13.6833L20.7377 13.6834C20.6356 13.7908 20.511 13.8742 20.3728 13.9275L20.3726 13.9276C20.3596 13.9326 20.3465 13.9373 20.3333 13.9418C20.226 13.9781 20.1133 13.9958 20.0001 13.9944ZM10 13.4296V15.9885L19.9796 15.9886C20.3586 15.9929 20.7355 15.9251 21.0903 15.7883L21.0905 15.7882C21.3605 15.684 21.6132 15.5415 21.8412 15.3657C21.9625 15.272 22.0768 15.169 22.183 15.0573L22.1831 15.0572C22.4886 14.7355 22.7189 14.3501 22.8573 13.9285L22.8573 13.9284C22.9956 13.5069 23.0386 13.0599 22.9831 12.6198L22.9831 12.6195C22.9275 12.1793 22.7749 11.757 22.5362 11.383L22.5361 11.3828C22.2974 11.0088 21.9785 10.6926 21.6026 10.457L21.6026 10.457C21.472 10.3751 21.3356 10.3037 21.1947 10.2431C20.9302 10.1295 20.65 10.0543 20.3625 10.0205L20.3623 10.0204C19.934 9.97012 19.5001 10.013 19.0901 10.1459L19.0898 10.145L19.0591 10.1561L19.0555 10.1573L19.0551 10.1575L19.0551 10.1576L10 13.4296ZM10 21.998V24.0525L23.2058 28.7506L23.2057 28.751C23.6836 28.9417 24.1977 29.0246 24.7113 28.9938C24.9088 28.982 25.1043 28.9534 25.2959 28.9088C25.6026 28.8373 25.8991 28.7245 26.1771 28.5728C26.6288 28.3264 27.0206 27.9833 27.3246 27.568C27.6286 27.1527 27.8372 26.6755 27.9357 26.1703C28.0342 25.6652 28.0201 25.1445 27.8943 24.6454C27.7686 24.1463 27.5344 23.6811 27.2083 23.283C27.0076 23.0379 26.7752 22.8219 26.5178 22.6404C26.357 22.527 26.1866 22.4271 26.008 22.3419C25.5443 22.1207 25.0376 22.0043 24.5239 22.0011V21.9981L10 21.998ZM24.5103 23.9983L15.8151 23.9982L23.9842 26.9045L23.9835 26.9065C24.1776 26.9782 24.3847 27.0089 24.5916 26.9964C24.8115 26.9833 25.0258 26.9217 25.2193 26.8162C25.4127 26.7106 25.5805 26.5637 25.7106 26.3859C25.8408 26.2081 25.9302 26.0037 25.9723 25.7874C26.0145 25.571 26.0085 25.3481 25.9546 25.1344C25.9008 24.9206 25.8005 24.7214 25.6608 24.5509C25.5212 24.3804 25.3457 24.2428 25.1468 24.1479C24.9483 24.0532 24.7312 24.0034 24.5112 24.002L24.5103 24.002L24.5103 24.0016L24.5103 23.9983ZM29.018 14.2481L29.0172 14.2486L28.0336 12.5072L28.0325 12.5051L28.0345 12.504C28.567 12.2035 29.1613 12.0291 29.7718 11.9942C29.8603 11.9891 29.9489 11.987 30.0373 11.9878C30.559 11.9927 31.0757 12.0996 31.5579 12.3036C32.1218 12.5421 32.6234 12.9069 33.0241 13.3699C33.4248 13.8329 33.7139 14.3817 33.8692 14.974C34.0245 15.5664 34.0417 16.1865 33.9197 16.7866C33.7976 17.3867 33.5395 17.9508 33.1651 18.4353C32.8451 18.8497 32.4474 19.1964 31.9952 19.4568C31.9185 19.5009 31.8403 19.5425 31.7606 19.5816C31.2108 19.8512 30.6066 19.9909 29.9944 19.99V19.9897H10V17.9897H29.9972L29.9972 17.9876C30.303 17.988 30.6049 17.9182 30.8795 17.7836C31.1541 17.6489 31.3941 17.453 31.5811 17.2109C31.7681 16.9689 31.897 16.6871 31.958 16.3874C32.019 16.0876 32.0104 15.7778 31.9328 15.4819C31.8552 15.186 31.7108 14.9119 31.5106 14.6806C31.3105 14.4493 31.0599 14.2671 30.7782 14.1479C30.4966 14.0288 30.1913 13.9759 29.886 13.9934C29.581 14.0108 29.2841 14.098 29.018 14.2481Z" fill="white"/>
</svg>
