<svg width="34" height="33" viewBox="0 0 34 33" fill="none" xmlns="http://www.w3.org/2000/svg">
<path fill-rule="evenodd" clip-rule="evenodd" d="M26 20.8638C26 23.6811 23.1867 26.5 19 26.5C14.8133 26.5 12 23.6811 12 20.8638C12 17.9416 13.9006 14.3024 16.1345 11.1343C17.1442 9.70239 18.1575 8.45509 18.95 7.53368C19.7575 8.52709 20.8053 9.87938 21.8493 11.4055C22.9378 12.9967 23.9966 14.7398 24.7767 16.4363C25.5711 18.1638 26 19.6806 26 20.8638ZM10 20.8638C10 15.427 15.1312 8.87097 17.6448 5.98563C18.4601 5.0497 19 4.5 19 4.5C19 4.5 19.5172 5.07177 20.3037 6.02955C22.7979 9.06699 28 15.9867 28 20.8638C28 25.0812 23.9706 28.5 19 28.5C14.0294 28.5 10 25.0812 10 20.8638ZM14.4983 17.5H16.6499C16.2451 18.4239 16 19.3001 16 20.0455C16 21.1901 17.1196 22.5 19 22.5V24.5C16.2386 24.5 14 22.5057 14 20.0455C14 19.2246 14.191 18.36 14.4983 17.5Z" fill="white"/>
</svg>
